<?xml version="1.0" encoding="iso-8859-1"?>
<!-- Generator: Adobe Illustrator 16.0.0, SVG Export Plug-In . SVG Version: 6.00 Build 0)  -->
<!DOCTYPE svg PUBLIC "-//W3C//DTD SVG 1.1//EN" "http://www.w3.org/Graphics/SVG/1.1/DTD/svg11.dtd">
<svg version="1.1" id="Capa_1" xmlns="http://www.w3.org/2000/svg" xmlns:xlink="http://www.w3.org/1999/xlink" x="0px" y="0px"
	 width="94.075px" height="94.075px" viewBox="0 0 94.075 94.075" style="enable-background:new 0 0 94.075 94.075;"
	 xml:space="preserve">
<g>
	<path d="M90.73,84.271V27.446H49.452L74.154,2.743L71.412,0L47.039,24.383L22.66,0l-2.737,2.743l24.703,24.703H3.345v56.826h31.886
		v4.206h-8.006v5.598h39.616v-5.598h-8.004v-4.206H90.73z M16.232,81.476H9.827v-2.802h6.405V81.476z M9.162,74.472V33.265h75.756
		v41.212H9.162V74.472z M40.013,63.081h6.375v7.946C43.605,68.56,41.473,65.877,40.013,63.081z M38.556,63.081
		c1.398,2.883,3.461,5.629,6.159,8.18c-5.297-0.712-9.822-3.805-12.482-8.18H38.556z M55.524,63.081h6.323
		c-2.66,4.375-7.183,7.468-12.482,8.18C52.06,68.71,54.129,65.966,55.524,63.081z M47.692,71.032v-7.951h6.372
		C52.609,65.877,50.477,68.56,47.692,71.032z M39.809,45.142c1.456-2.948,3.654-5.739,6.562-8.325c0.004,0,0.013,0,0.02,0v8.325
		H39.809z M38.366,45.142h-6.134c2.579-4.244,6.921-7.29,12.013-8.119C41.657,39.562,39.681,42.288,38.366,45.142z M55.716,45.142
		c-1.315-2.857-3.291-5.583-5.886-8.119c5.097,0.827,9.429,3.871,12.018,8.119H55.716z M54.272,45.142h-6.58v-8.325
		c0.008,0,0.017,0,0.022,0C50.608,39.398,52.816,42.196,54.272,45.142z M32.267,60.197h-1.279h-1.285l-5.083-8.883v8.883h-1.2
		h-1.206V47.879h1.348h1.352l4.941,8.655v-8.655h1.198h1.21L32.267,60.197L32.267,60.197z M37.306,50.069v2.609h6.024v1.063v1.054
		h-6.024v3.212h6.776v1.09v1.1h-9.343V47.879h9.061v1.091v1.099H37.306L37.306,50.069z M45.151,47.879h1.337h1.335l2.055,9.005
		l1.761-9.005h1.364h1.373l1.779,8.942h0.012l2.037-8.942h1.307h1.298l-3.426,12.313h-1.223h-1.223l-1.976-9.694l-1.935,9.694
		h-1.226h-1.222L45.151,47.879z M70.951,54.253c0.604,0.526,0.91,1.354,0.91,2.509s-0.454,2.071-1.368,2.756
		c-0.915,0.68-2.14,1.015-3.695,1.015s-2.776-0.354-3.647-1.081c-0.876-0.723-1.346-1.742-1.407-3.072h2.479
		c0.031,0.654,0.265,1.158,0.716,1.508c0.442,0.349,1.067,0.531,1.866,0.531c0.825,0,1.46-0.139,1.925-0.401
		c0.456-0.265,0.689-0.634,0.689-1.102c0-0.459-0.165-0.806-0.498-1.024c-0.328-0.21-1.017-0.442-2.08-0.675
		c-1.952-0.437-3.262-0.915-3.921-1.412c-0.65-0.509-0.977-1.298-0.977-2.365c0-1.187,0.432-2.145,1.293-2.846
		c0.872-0.698,2.04-1.044,3.514-1.044c1.377,0,2.497,0.362,3.359,1.091c0.872,0.729,1.351,1.704,1.446,2.938h-2.509
		c-0.048-0.589-0.302-1.052-0.765-1.398c-0.47-0.338-1.083-0.511-1.838-0.511c-0.652,0-1.164,0.144-1.528,0.422
		c-0.365,0.287-0.553,0.698-0.553,1.207c0,0.367,0.196,0.659,0.58,0.855c0.378,0.205,1.186,0.439,2.422,0.718
		C69.151,53.263,70.35,53.732,70.951,54.253z"/>
</g>
<g>
</g>
<g>
</g>
<g>
</g>
<g>
</g>
<g>
</g>
<g>
</g>
<g>
</g>
<g>
</g>
<g>
</g>
<g>
</g>
<g>
</g>
<g>
</g>
<g>
</g>
<g>
</g>
<g>
</g>
</svg>
